{
    "asset" : {
        "generator" : "Khronos glTF Blender I/O v1.7.33",
        "version" : "2.0"
    },
    "scene" : 0,
    "scenes" : [
        {
            "name" : "Scene",
            "nodes" : [
                6,
                7,
                8,
                9,
                10,
                11,
                12
            ]
        }
    ],
    "nodes" : [
        {
            "mesh" : 0,
            "name" : "Cube",
            "scale" : [
                0.5464576482772827,
                0.2592063546180725,
                1
            ],
            "translation" : [
                0,
                0.2457832247018814,
                -0.7435137629508972
            ]
        },
        {
            "mesh" : 1,
            "name" : "Cube.001",
            "scale" : [
                0.5464576482772827,
                0.2592063546180725,
                0.476108193397522
            ],
            "translation" : [
                0,
                0.7359997034072876,
                -1.2588305473327637
            ]
        },
        {
            "mesh" : 2,
            "name" : "Cylinder",
            "rotation" : [
                0,
                0,
                0.7071067690849304,
                0.7071068286895752
            ],
            "scale" : [
                0.2948560118675232,
                -0.11520653963088989,
                0.2948560118675232
            ],
            "translation" : [
                -0.6260244846343994,
                0,
                0
            ]
        },
        {
            "mesh" : 3,
            "name" : "Cylinder.001",
            "rotation" : [
                0,
                0,
                0.7071067690849304,
                0.7071068286895752
            ],
            "scale" : [
                0.2948560118675232,
                -0.11520653963088989,
                0.2948560118675232
            ],
            "translation" : [
                0.6273030638694763,
                0,
                0
            ]
        },
        {
            "mesh" : 4,
            "name" : "Cylinder.002",
            "rotation" : [
                0,
                0,
                0.7071067690849304,
                0.7071068286895752
            ],
            "scale" : [
                0.2948560118675232,
                -0.11520653963088989,
                0.2948560118675232
            ],
            "translation" : [
                0.6273030638694763,
                0,
                -1.4392893314361572
            ]
        },
        {
            "mesh" : 5,
            "name" : "Cylinder.003",
            "rotation" : [
                0,
                0,
                0.7071067690849304,
                0.7071068286895752
            ],
            "scale" : [
                0.2948560118675232,
                -0.11520653963088989,
                0.2948560118675232
            ],
            "translation" : [
                -0.6260244846343994,
                0,
                -1.4392893314361572
            ]
        },
        {
            "children" : [
                0,
                1,
                2,
                3,
                4,
                5
            ],
            "name" : "Collection 2"
        },
        {
            "mesh" : 0,
            "name" : "Cube",
            "scale" : [
                0.5464576482772827,
                0.2592063546180725,
                1
            ],
            "translation" : [
                0,
                0.2457832247018814,
                -0.7435137629508972
            ]
        },
        {
            "mesh" : 1,
            "name" : "Cube.001",
            "scale" : [
                0.5464576482772827,
                0.2592063546180725,
                0.476108193397522
            ],
            "translation" : [
                0,
                0.7359997034072876,
                -1.2588305473327637
            ]
        },
        {
            "mesh" : 2,
            "name" : "Cylinder",
            "rotation" : [
                0,
                0,
                0.7071067690849304,
                0.7071068286895752
            ],
            "scale" : [
                0.2948560118675232,
                -0.11520653963088989,
                0.2948560118675232
            ],
            "translation" : [
                -0.6260244846343994,
                0,
                0
            ]
        },
        {
            "mesh" : 3,
            "name" : "Cylinder.001",
            "rotation" : [
                0,
                0,
                0.7071067690849304,
                0.7071068286895752
            ],
            "scale" : [
                0.2948560118675232,
                -0.11520653963088989,
                0.2948560118675232
            ],
            "translation" : [
                0.6273030638694763,
                0,
                0
            ]
        },
        {
            "mesh" : 4,
            "name" : "Cylinder.002",
            "rotation" : [
                0,
                0,
                0.7071067690849304,
                0.7071068286895752
            ],
            "scale" : [
                0.2948560118675232,
                -0.11520653963088989,
                0.2948560118675232
            ],
            "translation" : [
                0.6273030638694763,
                0,
                -1.4392893314361572
            ]
        },
        {
            "mesh" : 5,
            "name" : "Cylinder.003",
            "rotation" : [
                0,
                0,
                0.7071067690849304,
                0.7071068286895752
            ],
            "scale" : [
                0.2948560118675232,
                -0.11520653963088989,
                0.2948560118675232
            ],
            "translation" : [
                -0.6260244846343994,
                0,
                -1.4392893314361572
            ]
        }
    ],
    "animations" : [
        {
            "channels" : [
                {
                    "sampler" : 0,
                    "target" : {
                        "node" : 6,
                        "path" : "translation"
                    }
                },
                {
                    "sampler" : 1,
                    "target" : {
                        "node" : 6,
                        "path" : "rotation"
                    }
                }
            ],
            "name" : "Collection 2Action",
            "samplers" : [
                {
                    "input" : 20,
                    "interpolation" : "LINEAR",
                    "output" : 21
                },
                {
                    "input" : 22,
                    "interpolation" : "LINEAR",
                    "output" : 23
                }
            ]
        }
    ],
    "materials" : [
        {
            "doubleSided" : true,
            "name" : "Material.001",
            "pbrMetallicRoughness" : {
                "baseColorTexture" : {
                    "index" : 0
                },
                "metallicFactor" : 0,
                "roughnessFactor" : 0.5
            }
        },
        {
            "doubleSided" : true,
            "name" : "Material.002",
            "pbrMetallicRoughness" : {
                "baseColorFactor" : [
                    0.005604670848697424,
                    0.00026256131241098046,
                    0,
                    1
                ],
                "metallicFactor" : 0,
                "roughnessFactor" : 0.5
            }
        }
    ],
    "meshes" : [
        {
            "name" : "Cube.001",
            "primitives" : [
                {
                    "attributes" : {
                        "POSITION" : 0,
                        "NORMAL" : 1,
                        "TEXCOORD_0" : 2
                    },
                    "indices" : 3,
                    "material" : 0
                }
            ]
        },
        {
            "name" : "Cube.002",
            "primitives" : [
                {
                    "attributes" : {
                        "POSITION" : 4,
                        "NORMAL" : 5,
                        "TEXCOORD_0" : 6
                    },
                    "indices" : 3,
                    "material" : 0
                }
            ]
        },
        {
            "name" : "Cylinder",
            "primitives" : [
                {
                    "attributes" : {
                        "POSITION" : 7,
                        "NORMAL" : 8,
                        "TEXCOORD_0" : 9
                    },
                    "indices" : 10,
                    "material" : 1
                }
            ]
        },
        {
            "name" : "Cylinder.001",
            "primitives" : [
                {
                    "attributes" : {
                        "POSITION" : 11,
                        "NORMAL" : 12,
                        "TEXCOORD_0" : 13
                    },
                    "indices" : 10,
                    "material" : 1
                }
            ]
        },
        {
            "name" : "Cylinder.002",
            "primitives" : [
                {
                    "attributes" : {
                        "POSITION" : 14,
                        "NORMAL" : 15,
                        "TEXCOORD_0" : 16
                    },
                    "indices" : 10,
                    "material" : 1
                }
            ]
        },
        {
            "name" : "Cylinder.003",
            "primitives" : [
                {
                    "attributes" : {
                        "POSITION" : 17,
                        "NORMAL" : 18,
                        "TEXCOORD_0" : 19
                    },
                    "indices" : 10,
                    "material" : 1
                }
            ]
        }
    ],
    "textures" : [
        {
            "sampler" : 0,
            "source" : 0
        }
    ],
    "images" : [
        {
            "bufferView" : 4,
            "mimeType" : "image/png",
            "name" : "Material"
        }
    ],
    "accessors" : [
        {
            "bufferView" : 0,
            "componentType" : 5126,
            "count" : 24,
            "max" : [
                1,
                1,
                1
            ],
            "min" : [
                -1,
                -1,
                -1
            ],
            "type" : "VEC3"
        },
        {
            "bufferView" : 1,
            "componentType" : 5126,
            "count" : 24,
            "type" : "VEC3"
        },
        {
            "bufferView" : 2,
            "componentType" : 5126,
            "count" : 24,
            "type" : "VEC2"
        },
        {
            "bufferView" : 3,
            "componentType" : 5123,
            "count" : 36,
            "type" : "SCALAR"
        },
        {
            "bufferView" : 5,
            "componentType" : 5126,
            "count" : 24,
            "max" : [
                1,
                1,
                1
            ],
            "min" : [
                -1,
                -1,
                -1
            ],
            "type" : "VEC3"
        },
        {
            "bufferView" : 6,
            "componentType" : 5126,
            "count" : 24,
            "type" : "VEC3"
        },
        {
            "bufferView" : 7,
            "componentType" : 5126,
            "count" : 24,
            "type" : "VEC2"
        },
        {
            "bufferView" : 8,
            "componentType" : 5126,
            "count" : 192,
            "max" : [
                1,
                1,
                1
            ],
            "min" : [
                -1,
                -1,
                -1
            ],
            "type" : "VEC3"
        },
        {
            "bufferView" : 9,
            "componentType" : 5126,
            "count" : 192,
            "type" : "VEC3"
        },
        {
            "bufferView" : 10,
            "componentType" : 5126,
            "count" : 192,
            "type" : "VEC2"
        },
        {
            "bufferView" : 11,
            "componentType" : 5123,
            "count" : 372,
            "type" : "SCALAR"
        },
        {
            "bufferView" : 12,
            "componentType" : 5126,
            "count" : 192,
            "max" : [
                1,
                1,
                1
            ],
            "min" : [
                -1,
                -1,
                -1
            ],
            "type" : "VEC3"
        },
        {
            "bufferView" : 13,
            "componentType" : 5126,
            "count" : 192,
            "type" : "VEC3"
        },
        {
            "bufferView" : 14,
            "componentType" : 5126,
            "count" : 192,
            "type" : "VEC2"
        },
        {
            "bufferView" : 15,
            "componentType" : 5126,
            "count" : 192,
            "max" : [
                1,
                1,
                1
            ],
            "min" : [
                -1,
                -1,
                -1
            ],
            "type" : "VEC3"
        },
        {
            "bufferView" : 16,
            "componentType" : 5126,
            "count" : 192,
            "type" : "VEC3"
        },
        {
            "bufferView" : 17,
            "componentType" : 5126,
            "count" : 192,
            "type" : "VEC2"
        },
        {
            "bufferView" : 18,
            "componentType" : 5126,
            "count" : 192,
            "max" : [
                1,
                1,
                1
            ],
            "min" : [
                -1,
                -1,
                -1
            ],
            "type" : "VEC3"
        },
        {
            "bufferView" : 19,
            "componentType" : 5126,
            "count" : 192,
            "type" : "VEC3"
        },
        {
            "bufferView" : 20,
            "componentType" : 5126,
            "count" : 192,
            "type" : "VEC2"
        },
        {
            "bufferView" : 21,
            "componentType" : 5126,
            "count" : 21,
            "max" : [
                0.8333333333333334
            ],
            "min" : [
                0
            ],
            "type" : "SCALAR"
        },
        {
            "bufferView" : 22,
            "componentType" : 5126,
            "count" : 21,
            "type" : "VEC3"
        },
        {
            "bufferView" : 23,
            "componentType" : 5126,
            "count" : 11,
            "max" : [
                0.8333333333333334
            ],
            "min" : [
                0.4166666666666667
            ],
            "type" : "SCALAR"
        },
        {
            "bufferView" : 24,
            "componentType" : 5126,
            "count" : 11,
            "type" : "VEC4"
        }
    ],
    "bufferViews" : [
        {
            "buffer" : 0,
            "byteLength" : 288,
            "byteOffset" : 0
        },
        {
            "buffer" : 0,
            "byteLength" : 288,
            "byteOffset" : 288
        },
        {
            "buffer" : 0,
            "byteLength" : 192,
            "byteOffset" : 576
        },
        {
            "buffer" : 0,
            "byteLength" : 72,
            "byteOffset" : 768
        },
        {
            "buffer" : 0,
            "byteLength" : 20565,
            "byteOffset" : 840
        },
        {
            "buffer" : 0,
            "byteLength" : 288,
            "byteOffset" : 21408
        },
        {
            "buffer" : 0,
            "byteLength" : 288,
            "byteOffset" : 21696
        },
        {
            "buffer" : 0,
            "byteLength" : 192,
            "byteOffset" : 21984
        },
        {
            "buffer" : 0,
            "byteLength" : 2304,
            "byteOffset" : 22176
        },
        {
            "buffer" : 0,
            "byteLength" : 2304,
            "byteOffset" : 24480
        },
        {
            "buffer" : 0,
            "byteLength" : 1536,
            "byteOffset" : 26784
        },
        {
            "buffer" : 0,
            "byteLength" : 744,
            "byteOffset" : 28320
        },
        {
            "buffer" : 0,
            "byteLength" : 2304,
            "byteOffset" : 29064
        },
        {
            "buffer" : 0,
            "byteLength" : 2304,
            "byteOffset" : 31368
        },
        {
            "buffer" : 0,
            "byteLength" : 1536,
            "byteOffset" : 33672
        },
        {
            "buffer" : 0,
            "byteLength" : 2304,
            "byteOffset" : 35208
        },
        {
            "buffer" : 0,
            "byteLength" : 2304,
            "byteOffset" : 37512
        },
        {
            "buffer" : 0,
            "byteLength" : 1536,
            "byteOffset" : 39816
        },
        {
            "buffer" : 0,
            "byteLength" : 2304,
            "byteOffset" : 41352
        },
        {
            "buffer" : 0,
            "byteLength" : 2304,
            "byteOffset" : 43656
        },
        {
            "buffer" : 0,
            "byteLength" : 1536,
            "byteOffset" : 45960
        },
        {
            "buffer" : 0,
            "byteLength" : 84,
            "byteOffset" : 47496
        },
        {
            "buffer" : 0,
            "byteLength" : 252,
            "byteOffset" : 47580
        },
        {
            "buffer" : 0,
            "byteLength" : 44,
            "byteOffset" : 47832
        },
        {
            "buffer" : 0,
            "byteLength" : 176,
            "byteOffset" : 47876
        }
    ],
    "samplers" : [
        {
            "magFilter" : 9729,
            "minFilter" : 9987
        }
    ],
    "buffers" : [
        {
            "byteLength" : 48052,
            "uri" : "data:application/octet-stream;base64,"
        }
    ]
}
